# xmcd CD database file
#
# Track frame offsets:
#	183
#	98078
#	151055
#
# Disc length: 2517 seconds
#
# Revision: 0
# Processed by: cddbd v1.5.2PL0 Copyright (c) Steve Scherf et al.
# Submitted via: CDex 1.51
#
DISCID=1409d303
DTITLE=Magma - 1001° centigrades
DYEAR=1971
DGENRE=Jazz
TTITLE0=RÏAH SAHÏLTAAHK
TTITLE1="ISS" LANSEÏ DOÏA
TTITLE2=KI ÏAHL Ö LÏAHK
EXTD=YEAR: 1971
EXTT0=
EXTT1=
EXTT2=
PLAYORDER=
